EMG_gait_6.mot
nRows=20
nColumns=25

name EMG_gait_6.mot
datacolumns 25
datarows 20
range 2.3060000000 2.3250000000
endheader
Time	HamL_r	TA_r	PerL_r	GL_r	HamM_r	Sol_r	VL_r	VM_r	PerB_l	TA_l	PerL_l	GL_l	GM_l	Sol_l	VL_l	VM_l	AddL_l	RF_l	TFL_l	GluMed_l	HamL_l	HamM_l	GluMed_r	RF_r
        2.3060000000	        0.9270788127	        0.0007122725	        0.6516070763	        0.4936726473	        0.4674725690	        0.0747680973	        0.0389584554	        0.3120207027	        0.1579818747	        0.7621864588	        0.5708967717	        0.0923306734	        0.0905419120	        0.1573935083	        0.6256676223	        0.5686660450	        0.5331614593	        0.2554487200	        0.2561366227	        0.2609125757	        0.4473384810	        0.1135569279	        0.0227524918	        0.0796925849	
        2.3070000000	        0.9242360009	        0.0023481847	        0.6572375657	        0.4936802671	        0.4637306397	        0.0712678788	        0.0388325934	        0.3148356986	        0.1594913889	        0.7647809260	        0.5727773457	        0.0935415989	        0.0916381127	        0.1596564274	        0.6280741706	        0.5692662671	        0.5425047225	        0.2628665077	        0.2679032592	        0.2689309663	        0.4618402455	        0.1141128218	        0.0226325274	        0.0791148524	
        2.3080000000	        0.9210692399	        0.0048260182	        0.6624149869	        0.4935615222	        0.4601943209	        0.0679866603	        0.0387188192	        0.3182427607	        0.1609426401	        0.7674926760	        0.5743696173	        0.0947295351	        0.0927342554	        0.1619238133	        0.6303939624	        0.5703792724	        0.5521258124	        0.2706599636	        0.2798672757	        0.2771184156	        0.4764361585	        0.1146749230	        0.0225101326	        0.0785178082	
        2.3090000000	        0.9176032717	        0.0081311398	        0.6671297816	        0.4933323369	        0.4568710143	        0.0649241925	        0.0386166586	        0.3222377269	        0.1623327066	        0.7703223940	        0.5756682738	        0.0958916013	        0.0938281114	        0.1641916116	        0.6326367143	        0.5720053658	        0.5620190300	        0.2788232386	        0.2920094189	        0.2854671594	        0.4910972014	        0.1152413063	        0.0223855442	        0.0779056321	
        2.3100000000	        0.9138631309	        0.0122471693	        0.6713737855	        0.4930093879	        0.4537673088	        0.0620798597	        0.0385256544	        0.3268146672	        0.1636586057	        0.7732688613	        0.5766681885	        0.0970249418	        0.0949173499	        0.1664555572	        0.6348120913	        0.5741429919	        0.5721775095	        0.2873489967	        0.3043094293	        0.2939686746	        0.5057934616	        0.1158100699	        0.0222589787	        0.0772827140	
        2.3110000000	        0.9098740730	        0.0171560365	        0.6751402329	        0.4926100074	        0.4508889464	        0.0594526898	        0.0384453703	        0.3319658753	        0.1649173071	        0.7763289410	        0.5773644546	        0.0981267392	        0.0959995503	        0.1687111888	        0.6369296458	        0.5767887418	        0.5825931821	        0.2962284010	        0.3167460884	        0.3026136867	        0.5204941907	        0.1163793364	        0.0221306327	        0.0766536513	
        2.3120000000	        0.9056615015	        0.0228380367	        0.6784237589	        0.4921520811	        0.4482407946	        0.0570413659	        0.0383753961	        0.3376818697	        0.1661057482	        0.7794975779	        0.5777524185	        0.0991942264	        0.0970722139	        0.1709538641	        0.6389987589	        0.5799373652	        0.5932567461	        0.3054511067	        0.3292972724	        0.3113921814	        0.5351678682	        0.1169472533	        0.0220006836	        0.0760232455	
        2.3130000000	        0.9012508945	        0.0292718869	        0.6812203968	        0.4916539407	        0.4458268247	        0.0548442380	        0.0383153504	        0.3439514030	        0.1672208515	        0.7827678089	        0.5778277143	        0.1002247006	        0.0981327778	        0.1731787790	        0.6410285841	        0.5835817903	        0.6041576460	        0.3150052616	        0.3419400115	        0.3202934192	        0.5497822708	        0.1175119936	        0.0218692899	        0.0753964977	
        2.3140000000	        0.8966677323	        0.0364347796	        0.6835275736	        0.4911342517	        0.4436500964	        0.0528593349	        0.0382648851	        0.3507614818	        0.1682595432	        0.7861307866	        0.5775862977	        0.1012155350	        0.0991786278	        0.1753809871	        0.6430279938	        0.5877131491	        0.6152840586	        0.3248775141	        0.3546505550	        0.3293059550	        0.5643045478	        0.1180717560	        0.0217365922	        0.0747786032	
        2.3150000000	        0.8919374249	        0.0443024363	        0.6853441025	        0.4906118986	        0.4417127493	        0.0510843766	        0.0382236878	        0.3580973947	        0.1692187740	        0.7895758151	        0.5770244796	        0.1021641922	        0.1002071129	        0.1775554227	        0.6450055296	        0.5923208098	        0.6266228879	        0.3350530284	        0.3674044426	        0.3384176612	        0.5787013022	        0.1186247648	        0.0216027137	        0.0741749450	
        2.3160000000	        0.8870852416	        0.0528491589	        0.6866701719	        0.4901058668	        0.4400159997	        0.0495167868	        0.0381914847	        0.3659427509	        0.1700955402	        0.7930903966	        0.5761389585	        0.1030682362	        0.1012155596	        0.1796969245	        0.6469693568	        0.5973924156	        0.6381597681	        0.3455155082	        0.3801765803	        0.3476157550	        0.5929386775	        0.1191692704	        0.0214677608	        0.0735910851	
        2.3170000000	        0.8821362415	        0.0620478802	        0.6875073324	        0.4896351225	        0.4385601447	        0.0481537053	        0.0381680429	        0.3742795263	        0.1708869068	        0.7966602905	        0.5749268513	        0.1039253446	        0.1022012860	        0.1818002620	        0.6489272233	        0.6029139299	        0.6498790761	        0.3562472275	        0.3929413225	        0.3568868304	        0.6069824501	        0.1197035486	        0.0213318239	        0.0730327555	
        2.3180000000	        0.8771152066	        0.0718702126	        0.6878584813	        0.4892184915	        0.4373445717	        0.0469920008	        0.0381531716	        0.3830881196	        0.1715900311	        0.8002695823	        0.5733857232	        0.1047333202	        0.1031616168	        0.1838601624	        0.6508864235	        0.6088696884	        0.6617639508	        0.3672290692	        0.4056725583	        0.3662168947	        0.6207981270	        0.1202259007	        0.0211949782	        0.0725058475	
        2.3190000000	        0.8720465763	        0.0822864976	        0.6877278445	        0.4888745376	        0.4363677735	        0.0460282834	        0.0381467238	        0.3923474156	        0.1722021869	        0.8039007630	        0.5715136157	        0.1054901022	        0.1040938972	        0.1858713398	        0.6528537676	        0.6152424573	        0.6737963220	        0.3784405722	        0.4183438022	        0.3755914082	        0.6343510493	        0.1207346532	        0.0210572841	        0.0720163994	
        2.3200000000	        0.8669543838	        0.0932658547	        0.6871209568	        0.4886214408	        0.4356273686	        0.0452589172	        0.0381485969	        0.4020348574	        0.1727207890	        0.8075348174	        0.5693090725	        0.1061937772	        0.1049955076	        0.1878285248	        0.6548355568	        0.6220134984	        0.6859569466	        0.3898599850	        0.4309282900	        0.3849953287	        0.6476064998	        0.1212281572	        0.0209187878	        0.0715705828	
        2.3210000000	        0.8618621934	        0.1047762309	        0.6860446407	        0.4884768780	        0.4351201258	        0.0446800327	        0.0381587333	        0.4121265257	        0.1731434178	        0.8111513209	        0.5667711638	        0.1068425888	        0.1058638771	        0.1897264957	        0.6568375637	        0.6291626407	        0.6982254517	        0.4014643279	        0.4433990772	        0.3944131601	        0.6605298148	        0.1217047884	        0.0207795225	        0.0711746875	
        2.3220000000	        0.8567930398	        0.1167844513	        0.6845069835	        0.4884579051	        0.4348419926	        0.0442875387	        0.0381771199	        0.4225972256	        0.1734678438	        0.8147285441	        0.5638995084	        0.1074349473	        0.1066964972	        0.1915601095	        0.6588650189	        0.6366683579	        0.7105803851	        0.4132294617	        0.4557291412	        0.4038290035	        0.6730865006	        0.1221629459	        0.0206395083	        0.0708351056	
        2.3230000000	        0.8517693668	        0.1292562711	        0.6825173141	        0.4885808446	        0.4347881271	        0.0440771347	        0.0382037882	        0.4334205811	        0.1736920512	        0.8182435643	        0.5606942941	        0.1079694378	        0.1074909346	        0.1933243346	        0.6609226029	        0.6445078533	        0.7229992723	        0.4251301645	        0.4678914867	        0.4132266124	        0.6852423527	        0.1226010526	        0.0204987536	        0.0705583135	
        2.3240000000	        0.8468129686	        0.1421564288	        0.6800861786	        0.4888611770	        0.4349529324	        0.0440443224	        0.0382388131	        0.4445691369	        0.1738142612	        0.8216723831	        0.5571562954	        0.1084448276	        0.1082448442	        0.1950142822	        0.6630144440	        0.6526571502	        0.7354586798	        0.4371402144	        0.4798592522	        0.4225894504	        0.6969635778	        0.1230175541	        0.0203572549	        0.0703508535	
        2.3250000000	        0.8419449302	        0.1554487025	        0.6772253144	        0.4893134388	        0.4353300922	        0.0441844172	        0.0382823121	        0.4560144672	        0.1738329541	        0.8249900499	        0.5532868897	        0.1088600728	        0.1089559804	        0.1966252392	        0.6651441215	        0.6610911893	        0.7479342837	        0.4492324801	        0.4916058187	        0.4319007508	        0.7082169189	        0.1234109192	        0.0202149982	        0.0702193131	
